<svg width="40" height="40" viewBox="0 0 40 40" xmlns="http://www.w3.org/2000/svg">
  <defs>
    <linearGradient id="shieldGradientIcon" x1="0%" y1="0%" x2="100%" y2="100%">
      <stop offset="0%" style="stop-color:#667eea;stop-opacity:1" />
      <stop offset="100%" style="stop-color:#764ba2;stop-opacity:1" />
    </linearGradient>
    <filter id="glowIcon">
      <feGaussianBlur stdDeviation="1" result="coloredBlur"/>
      <feMerge> 
        <feMergeNode in="coloredBlur"/>
        <feMergeNode in="SourceGraphic"/>
      </feMerge>
    </filter>
  </defs>
  
  <!-- Shield Icon -->
  <g transform="translate(2, 2)">
    <!-- Shield Background -->
    <path d="M 20 0 L 35 5 L 35 25 C 35 35 30 40 20 45 L 5 40 C 0 35 0 25 0 15 L 5 5 Z" 
          fill="url(#shieldGradientIcon)" 
          stroke="#4a5568" 
          stroke-width="1.5"
          filter="url(#glowIcon)"/>
    
    <!-- Shield Highlight -->
    <path d="M 20 0 L 35 5 L 35 25 C 35 35 30 40 20 45 L 5 40 C 0 35 0 25 0 15 L 5 5 Z" 
          fill="none" 
          stroke="rgba(255,255,255,0.3)" 
          stroke-width="2"
          stroke-dasharray="1,2"/>
    
    <!-- Monitoring Dots -->
    <circle cx="15" cy="15" r="2" fill="#ffffff" opacity="0.9"/>
    <circle cx="20" cy="20" r="2" fill="#ffffff" opacity="0.9"/>
    <circle cx="25" cy="15" r="2" fill="#ffffff" opacity="0.9"/>
    
    <!-- Connection Lines -->
    <path d="M 15 15 L 20 20 L 25 15" 
          stroke="#ffffff" 
          stroke-width="1.5" 
          opacity="0.8" 
          fill="none"/>
    
    <!-- Security Lock -->
    <rect x="17" y="28" width="6" height="8" rx="1" fill="#ffffff" opacity="0.9"/>
    <circle cx="20" cy="26" r="2" fill="#ffffff" opacity="0.9"/>
  </g>
</svg>
